<svg width="360" height="360" xmlns="http://www.w3.org/2000/svg" xmlns:xlink="http://www.w3.org/1999/xlink" xmlns:svgjs="http://svgjs.com/svgjs"><svg xmlns="http://www.w3.org/2000/svg" data-name="Layer 1" viewBox="0 0 700 550" width="360" height="360" transform="translate(14.994 14.994) scale(.9167)"><path d="M257.354 116.312c10.82.314 29.266 3.094 30.799 18.264a43.433 43.433 0 01-19.288 9.59s-7.737-7.629-9.48 2.614 5.23 11.769 5.23 11.769.218 14.82 5.885 24.409a32.597 32.597 0 014.358 19.178s-14.165-15.691-40.318-11.114-12.64-11.551-13.076-16.781 1.525-10.68 5.448-18.525-.344-21.058 8.5-30.511q.395-.423.797-.82a28.797 28.797 0 0121.145-8.073z" class="color000 svgShape"/><path d="M288.242 134.563a30.658 30.658 0 01.927 6.915 28.469 28.469 0 01-.138 3.527l-.11.873-.055.748.066.722c.074.227.105.463.186.687a7.062 7.062 0 001.763 2.467 17.29 17.29 0 012.432 2.625 2.937 2.937 0 01.458 1.933 3.113 3.113 0 01-.738 1.772 4.81 4.81 0 01-3.355 1.345l.282-.289c.063 2.787.184 5.568.123 8.373a28.466 28.466 0 01-1.285 8.44 6.896 6.896 0 01-1.146 2.11 2.872 2.872 0 01-.507.486l-.302.219-.362.17a3.167 3.167 0 01-.61.197l-.56.142a20.414 20.414 0 01-4.33.331 47.185 47.185 0 01-8.381-.945l.37-.076a13.463 13.463 0 00-2.273 1.55 4.716 4.716 0 00-.896.999 1.355 1.355 0 00-.193 1.232l-.16.087a1.597 1.597 0 01-.072-1.524 5.263 5.263 0 01.8-1.298 11.974 11.974 0 012.212-2.005l.123-.09.248.014c2.738.157 5.501.298 8.208.213a25.309 25.309 0 003.948-.386l.45-.114a1.72 1.72 0 00.379-.114.74.74 0 01.11-.043l.117-.092a1.566 1.566 0 00.248-.224 5.136 5.136 0 00.878-1.499 36.113 36.113 0 001.688-7.882 58.5 58.5 0 00.612-8.257l-.003-.283.284-.006a3.766 3.766 0 002.86-1.19 2.128 2.128 0 00.428-1.41 2.002 2.002 0 00-.498-1.305 17.613 17.613 0 00-2.554-2.122 7.077 7.077 0 01-2.328-3 7.55 7.55 0 01-.256-.98 24.5 24.5 0 01-.06-.999l.102-.97.132-.836c.186-1.102.288-2.225.379-3.354.147-2.26.21-4.551.18-6.858z" class="color000 svgShape"/><path d="M283.576 150.758a1.363 1.363 0 000-2.724 1.363 1.363 0 000 2.724zm4.577 3.65a6.066 6.066 0 01.212.96 2.813 2.813 0 01.026.514c-.007.112-.068.136-.152.276a1.62 1.62 0 00-.086.865 1.007 1.007 0 01-1.168-.182 1.43 1.43 0 011.168-2.433zm-10.461-9.153a3.473 3.473 0 011.604-1.558 4.691 4.691 0 012.211-.507 4.79 4.79 0 012.187.556 4.067 4.067 0 011.625 1.509c-.781-.002-1.42-.11-2.051-.146-.619-.077-1.207-.076-1.785-.103a28.065 28.065 0 00-3.791.249zm5.884 17.435a6.96 6.96 0 011.66-.12 9.168 9.168 0 011.467.19 9.076 9.076 0 011.411.43 6.473 6.473 0 011.462.802 4.12 4.12 0 01-3.26.543 4.794 4.794 0 01-1.518-.612 3.475 3.475 0 01-1.222-1.233zm-19.179-6.484a1.363 1.363 0 000-2.724 1.363 1.363 0 000 2.724zM251.539 246.814l14.429 15.983-1.398 1.159-13.031-17.142zM344.958 301.245a78.38 78.38 0 008.132-19.543 139.345 139.345 0 003.89-20.841c.423-3.516.726-7.042 1.046-10.587a29.83 29.83 0 01.838-5.386 35.03 35.03 0 011.861-5.113c2.92-6.564 6.779-12.562 8.827-19.277a48.114 48.114 0 001.322-5.07c.162-.856.31-1.716.405-2.577a14.393 14.393 0 00.114-2.523 24.327 24.327 0 00-1.342-4.99 59.955 59.955 0 00-2-4.885c-.184-.404-.376-.775-.577-1.181a2.503 2.503 0 01-.213-.801 3.373 3.373 0 01-.023-.74 15.55 15.55 0 01.431-2.713c.405-1.75.898-3.453 1.323-5.17a33.485 33.485 0 00.939-5.185c.081-.863.086-1.758.082-2.629a9.514 9.514 0 00-.31-2.546 2.39 2.39 0 00-1.577-1.667c-.2-.074-.4-.147-.609-.21-.036-.01-.137-.049-.12-.035.006-.004-.007.001-.023.004a.625.625 0 00-.175.115 4.643 4.643 0 00-.732.999 38.221 38.221 0 00-2.205 4.801c-1.31 3.294-2.506 6.639-3.727 9.975-1.236 3.333-2.421 6.682-3.818 9.975a26.217 26.217 0 01-1.18 2.438 4.68 4.68 0 01-2.025 2.045 4.093 4.093 0 01-2.923.178 7.4 7.4 0 01-2.502-1.344l-.182-.144-.002-.244v-.009l.185.389a8.822 8.822 0 01-2.57-3.272 5.463 5.463 0 01-.332-1.044c-.072-.38-.095-.688-.135-1.031l-.16-1.978a30.89 30.89 0 00-.465-3.838 6.021 6.021 0 00-1.427-3.184 1.253 1.253 0 00-.305-.23.954.954 0 00-.33-.176c-.115-.036-.244-.097-.343-.122a.522.522 0 00-.211.002c-.236.03-.593.468-.803 1.01a14.272 14.272 0 00-.808 3.64 55.677 55.677 0 00-.252 7.757l.006.211-.127.237a19.915 19.915 0 00-2.102 4.96 18.923 18.923 0 00-.61 5.354 23.322 23.322 0 00.824 5.364 23.001 23.001 0 001.993 5.015l.183.33-.082.338c-.735 3.036-1.505 6.066-2.426 9.051a133.691 133.691 0 01-2.987 8.876q-1.62 4.394-3.496 8.686c-1.25 2.866-2.554 5.685-4.015 8.485l-.348.666-.705-.208a14.765 14.765 0 01-4.578-2.55 43.267 43.267 0 01-3.713-3.365c-2.324-2.365-4.448-4.88-6.517-7.428-4.117-5.11-7.971-10.398-11.874-15.63l-2.927-3.921-3.058-3.82-6.123-7.636c-4.01-5.155-8.286-10.093-12.474-15.11l.135-.12c4.36 4.865 8.847 9.626 13.012 14.67l6.33 7.497 3.164 3.753 3.03 3.86c3.99 5.18 7.918 10.394 12.078 15.396 2.084 2.493 4.228 4.936 6.51 7.205a41.544 41.544 0 003.554 3.201 13.2 13.2 0 003.925 2.209l-1.053.458c1.402-2.71 2.7-5.532 3.92-8.36q1.834-4.251 3.43-8.601 1.592-4.347 2.97-8.767c.936-2.94 1.72-5.924 2.472-8.914l.101.668a24.57 24.57 0 01-2.133-5.475 25.054 25.054 0 01-.835-5.783 20.23 20.23 0 013.073-11.2l-.12.447a57.066 57.066 0 01.41-7.988 15.463 15.463 0 01.987-4.013 4.474 4.474 0 01.597-1 2.124 2.124 0 011.19-.762 1.856 1.856 0 01.765.01 5.48 5.48 0 01.584.209 1.95 1.95 0 01.529.294 2.354 2.354 0 01.47.372 7.142 7.142 0 011.741 3.898 31.959 31.959 0 01.41 3.995l.122 1.954a5.174 5.174 0 00.352 1.76 7.808 7.808 0 002.207 2.91l.188.157-.002.232v.009l-.184-.388c1.251 1.054 2.987 1.797 4.413 1.131 1.431-.643 2.098-2.442 2.864-3.993 1.456-3.216 2.693-6.552 3.936-9.876 1.246-3.327 2.467-6.665 3.807-9.964a47.906 47.906 0 012.232-4.88 5.082 5.082 0 01.834-1.145 1.161 1.161 0 01.383-.24.618.618 0 01.304-.026 1.059 1.059 0 01.2.05c.217.064.434.14.652.22a3.39 3.39 0 011.232.766 3.198 3.198 0 01.723 1.268c.812 3.632.212 7.25-.588 10.72-.385 1.74-.837 3.464-1.19 5.185a14.768 14.768 0 00-.345 2.55 2.452 2.452 0 00.158 1.068c.202.384.429.798.622 1.196a60.498 60.498 0 012.16 4.925 25.214 25.214 0 011.534 5.248 15.282 15.282 0 01-.05 2.795c-.077.907-.21 1.803-.357 2.695a43.409 43.409 0 01-1.256 5.265 64.487 64.487 0 01-4.103 9.954c-1.562 3.205-3.238 6.343-4.703 9.526a33.48 33.48 0 00-1.828 4.873 28.337 28.337 0 00-.84 5.122c-.352 3.527-.691 7.078-1.15 10.613-.469 3.535-1.015 7.062-1.756 10.554-.324 1.754-.785 3.482-1.171 5.223-.472 1.721-.897 3.455-1.432 5.158a73.064 73.064 0 01-8.894 19.377z" class="color000 svgShape"/><path class="color000 svgShape" d="M331.74 264.684l-5.979-3.186 1.061-1.473 4.918 4.659zM299.738 232.075c1.12-1.804 2.337-3.541 3.59-5.259a47.8 47.8 0 014.089-4.932 13.92 13.92 0 012.534-2.154c.255-.134.572-.311.783-.401a6.88 6.88 0 00.662-.32 8.385 8.385 0 001.24-.786 54.408 54.408 0 004.501-4.322c1.493-1.508 3-3.012 4.56-4.455 1.548-1.458 3.19-2.827 4.71-4.236a35.24 35.24 0 004.23-4.553 14.976 14.976 0 001.597-2.6 5.307 5.307 0 00.595-2.802l-.007-.056v-.031l.008.08a1.73 1.73 0 00-.255-.7.934.934 0 00-.22-.237.25.25 0 00-.074-.042.276.276 0 00-.102-.003 4.71 4.71 0 00-1.533.731 33.747 33.747 0 00-2.975 2.225l-2.87 2.414c-.24.203-.48.406-.736.604a1.454 1.454 0 01-1.056.389 1.218 1.218 0 01-.914-.742 3.004 3.004 0 01-.23-1.015 10.136 10.136 0 01.695-3.791 29.152 29.152 0 011.473-3.505c1.134-2.26 2.44-4.41 3.713-6.561a58.703 58.703 0 003.525-6.483 4.975 4.975 0 00.405-1.55.53.53 0 00-.074-.383.409.409 0 00-.215-.088 3.212 3.212 0 00-1.292.499 12.622 12.622 0 00-1.435 1.011 50.093 50.093 0 00-5.27 5.133 146.586 146.586 0 00-4.844 5.639l-.324.394-.522-.038a16.59 16.59 0 00-9.704 2.673 40.723 40.723 0 00-8.117 6.798 85.784 85.784 0 00-6.758 8.4 12.744 12.744 0 01-4.321 3.502 17.333 17.333 0 01-5.209 1.699l-.03-.18a15.33 15.33 0 008.766-5.606 69.818 69.818 0 016.437-8.823 40.292 40.292 0 018.262-7.357 17.77 17.77 0 0110.859-3.033l-.846.355c1.6-1.966 3.266-3.84 5.003-5.677a51.633 51.633 0 015.574-5.217 14.217 14.217 0 011.652-1.114 4.286 4.286 0 012.222-.673 1.931 1.931 0 011.39.76 2.074 2.074 0 01.35 1.4 6.33 6.33 0 01-.581 2.051 48.842 48.842 0 01-3.904 6.537c-1.386 2.082-2.779 4.151-3.98 6.315a25.42 25.42 0 00-1.571 3.346 9.583 9.583 0 00-.719 3.526c.013.561.228 1.185.607 1.221.364.066.894-.482 1.365-.838l2.85-2.44c.967-.8 1.92-1.62 2.968-2.349a5.523 5.523 0 011.81-.918 1.053 1.053 0 01.362 0 .983.983 0 01.353.143 1.719 1.719 0 01.445.417 2.556 2.556 0 01.449 1.022l.006.027.001.053v.008l-.007-.077a6.184 6.184 0 01-.49 3.367 15.856 15.856 0 01-1.566 2.89 33.174 33.174 0 01-4.162 4.952c-1.53 1.526-3.129 2.885-4.66 4.332-1.545 1.433-3.089 2.864-4.598 4.34a54.645 54.645 0 01-4.748 4.36 9.27 9.27 0 01-1.458.877 8.174 8.174 0 01-.785.33c-.282.104-.422.197-.644.29a12.928 12.928 0 00-2.38 1.838 97.678 97.678 0 00-8.306 9.503z"/><path class="color000 svgShape" d="M313.651 192.547l3.483-4.984 1.316 1.251-4.799 3.733zM329.997 195.033c.894-2.614 1.909-5.17 2.916-7.73l1.562-3.816 1.618-3.788c1.083-2.524 2.22-5.022 3.347-7.525 1.17-2.482 2.298-4.984 3.504-7.45l.558-1.139 1.16.467q5.876 2.363 11.682 4.903c1.926.868 3.866 1.703 5.778 2.61 1.92.881 3.827 1.8 5.728 2.733l.39.192-.16.333q-.927 1.915-1.906 3.809c.361-1.376.746-2.742 1.146-4.102l.23.524a243.808 243.808 0 01-6.04-1.951c-2.012-.655-3.995-1.383-5.991-2.076q-5.964-2.143-11.855-4.468l1.717-.673c-1.155 2.49-2.389 4.941-3.579 7.414-1.234 2.452-2.458 4.908-3.736 7.34l-1.923 3.642-1.98 3.617c-1.353 2.395-2.699 4.793-4.166 7.134zM326.085 206.776l.413-.809 10.179 5.19-.413.81z"/><path d="M361.816 177.28l-13.413 29.085a7.36 7.36 0 01-2.715-4.232c-.436-3.269 0-10.025-3.487-10.897s-3.051 13.077-3.051 13.077a18.312 18.312 0 00-1.117 2.061l-7.746-4.24c2.697-3.388 3.206-5.658 2.97-6.957v-.009l.054-.136 12.377-24.718zm-48.2 124.15a54.56 54.56 0 01-14.424-6.05 106.173 106.173 0 01-12.88-8.946 136.155 136.155 0 01-11.686-10.465c-.927-.926-1.84-1.862-2.74-2.827-.91-.998-1.743-1.956-2.602-2.95l-2.537-2.986c-.844-1.032-1.656-1.964-2.492-3.195l.972.561a20.893 20.893 0 01-6.646-1.705 24.706 24.706 0 01-5.774-3.486 29.615 29.615 0 01-8.136-10.5l-.692-1.51-.344-.754c-.098-.257-.18-.52-.27-.78l-1.05-3.13c-.328-1.046-.514-2.13-.776-3.19a26.897 26.897 0 01-.631-3.213c-.265-2.165-.659-4.305-.735-6.494a47.113 47.113 0 01.122-6.538 43.407 43.407 0 013.056-12.648 34.696 34.696 0 013.007-5.788 23.632 23.632 0 014.32-4.925 15.683 15.683 0 015.868-2.984l1.63-.333c.549-.06 1.104-.068 1.656-.104l.83-.038.823.073 1.648.149a35.03 35.03 0 0112.075 4.918l-.83.978a38.267 38.267 0 00-11.997-7.697 45.45 45.45 0 00-13.873-3.358 57.526 57.526 0 00-14.282.82 47.768 47.768 0 01-7.483.785 20.076 20.076 0 01-3.91-.312 8.403 8.403 0 01-3.937-1.785l-1.66-1.448 2.089-.798.003-.002 2.515-.96-.774 2.635a98.892 98.892 0 00-2.989 14.459c-.194 1.222-.33 2.452-.463 3.683-.127 1.23-.294 2.458-.39 3.692l-.254 3.706-.12 1.853-.041 1.856a137.331 137.331 0 002.227 29.572c.495 2.427.868 4.886 1.578 7.264l.954 3.596c.325 1.197.603 2.409 1.043 3.57l2.408 7.047c.934 2.297 1.92 4.576 2.878 6.87a73.572 73.572 0 003.243 6.721 265.2 265.2 0 003.57 6.581c1.227 2.172 2.493 4.324 3.876 6.394a40.15 40.15 0 002.194 3.008 13.968 13.968 0 001.245 1.367 4.138 4.138 0 001.48 1.002l-.066.265a4.413 4.413 0 01-1.674-.974 14.41 14.41 0 01-1.37-1.324 36.51 36.51 0 01-2.391-2.933c-1.505-2.02-2.89-4.12-4.237-6.242-1.35-2.12-2.622-4.285-3.87-6.464a74.97 74.97 0 01-3.533-6.671c-1.06-2.288-2.148-4.567-3.185-6.87l-2.636-7.1c-.475-1.173-.787-2.398-1.146-3.608l-1.056-3.64c-.778-2.41-1.217-4.902-1.779-7.367a127.984 127.984 0 01-2.667-30.157l.045-1.897.127-1.893.264-3.786c.101-1.26.273-2.516.406-3.774.132-1.258.28-2.515.5-3.762a101.14 101.14 0 013.287-14.885l1.74 1.674-.003.001.429-2.246a5.855 5.855 0 002.665 1.192 17.557 17.557 0 003.377.307 45.358 45.358 0 007.08-.658 57.887 57.887 0 0114.9-.541 44.874 44.874 0 0114.376 3.918 40.362 40.362 0 0112.248 8.447l3.833 3.99-4.664-3.012a31.982 31.982 0 00-11.53-5.04l-1.561-.156-.78-.08-.781.03c-.52.028-1.043.028-1.56.079l-1.532.296a14.805 14.805 0 00-5.556 2.752 25.49 25.49 0 00-7.006 10.404 39.471 39.471 0 00-2.628 12.397 45.708 45.708 0 00.116 6.345c.15 2.109.616 4.193.945 6.283a25.6 25.6 0 00.721 3.085c.29 1.013.503 2.052.854 3.042l1.108 2.946c.094.244.18.493.28.733l.353.7.702 1.397a28.782 28.782 0 007.66 9.584 22.31 22.31 0 005.233 3.136 18.818 18.818 0 005.765 1.567l.639.059.334.503c.615.926 1.486 1.981 2.28 2.963l2.484 2.977 2.508 2.936c.854.952 1.737 1.894 2.631 2.822q2.68 2.788 5.505 5.44c.936.89 1.87 1.78 2.837 2.636a91.72 91.72 0 002.906 2.56 113.89 113.89 0 0012.373 9.29 58.077 58.077 0 0013.879 6.8zm43.38-36.03a151.95 151.95 0 017.265-3.63c1.217-.59 2.453-1.134 3.68-1.7 1.224-.572 2.468-1.094 3.702-1.643l.543-.242.52.37a41.427 41.427 0 013.717 3.002c1.207 1.021 2.303 2.15 3.418 3.263a62.933 62.933 0 015.898 7.34c3.526 5.184 6.84 10.443 9.835 15.922.824 1.332 1.487 2.745 2.186 4.146l1.057 2.1.525 1.053.454 1.084c.591 1.452 1.19 2.904 1.755 4.371.585 1.46.949 2.993 1.425 4.491a85.603 85.603 0 012.236 9.165c.612 3.089.796 6.244 1.138 9.366l.13 1.174-1.182.279c-2.001.472-4.019.877-6.028 1.317l-6.05 1.23q-3.03.591-6.072 1.133c-2.035.333-4.062.703-6.108.989l-.065-.265c1.946-.694 3.913-1.305 5.871-1.953q2.947-.931 5.907-1.809l5.93-1.712c1.985-.54 3.96-1.116 5.953-1.625l-1.052 1.452-.601-4.547a44.996 44.996 0 00-.626-4.537c-.57-3-.982-6.04-1.85-8.977l-.573-2.223c-.195-.74-.352-1.493-.616-2.212-.486-1.45-.937-2.916-1.396-4.383l-.334-1.105-.407-1.077-.822-2.156c-.553-1.437-1.09-2.887-1.78-4.265a58.117 58.117 0 00-10.135-15.404c-2.046-2.301-4.201-4.483-6.336-6.669-1.106-1.053-2.168-2.153-3.29-3.183-1.095-1.05-2.283-2.045-3.407-2.977l1.063.128c-1.268.463-2.526.953-3.803 1.394-1.276.445-2.542.914-3.826 1.337a151.943 151.943 0 01-7.747 2.441z" class="color000 svgShape"/><path d="M218.464 195.169q-19.172 1.827-38.261 4.31c-6.36.836-12.705 1.763-19.017 2.845-6.306 1.1-12.598 2.328-18.73 3.99a41.264 41.264 0 00-8.743 3.277 7.944 7.944 0 00-1.692 1.242 2.972 2.972 0 00-.486.668c-.033.11-.063.184-.09.302l-.025.418a33.805 33.805 0 00.586 4.578c1.162 6.25 2.697 12.491 4.228 18.711 3.12 12.437 6.29 24.877 9.6 37.28l9.82 37.243 4.992 18.603 5.141 18.562c1.735 6.181 3.432 12.373 5.214 18.542l5.356 18.5c3.55 12.34 7.274 24.631 10.948 36.934l-.725-.533 43.799-1.186 43.801-1.025 43.803-.95 21.902-.416 21.904-.345-.815.283 29.87-22.395c9.971-7.446 19.911-14.934 29.92-22.33l-.35.598c.669-4.851 1.072-9.79 1.255-14.708a104.54 104.54 0 00-.43-14.746 52.342 52.342 0 00-1.249-7.245 26.263 26.263 0 00-2.64-6.795 11.295 11.295 0 00-5.18-4.882 11.593 11.593 0 00-7.17-.403l-.066-.265a10.922 10.922 0 0113.032 5.173 27.073 27.073 0 012.94 6.925 53.38 53.38 0 011.498 7.348 101.777 101.777 0 01.768 14.927c-.082 4.985-.38 9.942-.961 14.92l-.042.358-.309.24c-9.823 7.642-19.716 15.191-29.577 22.782l-29.626 22.718-.356.273-.46.01-21.901.473-21.903.402-43.808.683-43.809.61-43.812.449-.574.006-.151-.54-10.444-37.084-5.244-18.535-5.319-18.513-10.691-37.014c-3.559-12.34-7.107-24.685-10.533-37.066l-4.996-18.612c-1.644-6.21-3.259-12.43-4.744-18.687-1.487-6.26-2.976-12.506-4.112-18.892a34.921 34.921 0 01-.582-4.973c.01-.25.036-.523.061-.782a4.66 4.66 0 01.263-.844 5.046 5.046 0 01.916-1.276 9.969 9.969 0 012.178-1.597 43 43 0 019.27-3.414 180.242 180.242 0 0118.992-3.747c6.364-.967 12.744-1.774 19.132-2.49 6.386-.73 12.787-1.306 19.19-1.834 6.403-.526 12.81-.995 19.225-1.331z" class="color000 svgShape"/><path d="M361.815 418.112s-1.307-83.688-4.768-96.764-104.657-.756-135.147-4.577c-9.571-1.199-16.664-6.927-21.484-12.64a50.426 50.426 0 01-9.351-17.155c-14.677-45.723-20.996-64.593-26.7-72.2-5.885-7.845-33.999-3.214-33.999-3.214-1.961 10.407 56.228 209.82 56.228 209.82z" class="color000 svgShape"/><path d="M162.398 206.236a26.268 26.268 0 0120.642 10.007 35.051 35.051 0 013.304 4.971 41.48 41.48 0 012.34 5.479c.694 1.875 1.236 3.757 1.733 5.646.52 1.887.971 3.785 1.434 5.68 1.836 7.578 3.49 15.17 5.516 22.643a127.496 127.496 0 007.676 21.76 48.176 48.176 0 006.029 9.663 24.971 24.971 0 008.753 6.982 8.612 8.612 0 001.298.543l1.325.485c.923.203 1.805.506 2.767.633 1.91.266 3.804.64 5.736.82 1.93.186 3.859.379 5.793.532l5.817.34c7.765.336 15.545.414 23.322.32 7.778-.018 15.554-.332 23.327-.6 7.774-.295 15.542-.719 23.311-1.072l11.65-.609 5.823-.321c1.903-.08 3.848-.302 5.807-.415a183.769 183.769 0 0123.514-.25 45.484 45.484 0 0111.859 2.075 12.557 12.557 0 012.94 1.479 5.539 5.539 0 012.308 3.089c.423 2.134.65 3.987.878 5.965 1.65 15.556 2.527 31.078 3.334 46.65l.126 2.927c.02.483.037.981.041 1.492l.006.373c.012.051 0 .109.013.157a.661.661 0 00.117.278 2.245 2.245 0 001.818.617 9.434 9.434 0 002.596-.456 24.454 24.454 0 005.089-2.39 49.893 49.893 0 004.743-3.25 136.947 136.947 0 0016.873-15.971l.206.178q-3.685 4.535-7.697 8.806a93.291 93.291 0 01-8.527 8.067 51.379 51.379 0 01-4.764 3.512 26.059 26.059 0 01-5.367 2.74 11.2 11.2 0 01-3.115.647 5.472 5.472 0 01-1.748-.199 3.272 3.272 0 01-1.704-1.123 2.66 2.66 0 01-.485-1.037 3.638 3.638 0 01-.07-.566l-.018-.355-.073-1.424-.187-2.901q-.811-11.627-1.845-23.252c-.7-7.74-1.32-15.5-2.248-23.18-.106-.964-.252-1.906-.37-2.862a26.021 26.021 0 00-.212-1.405l-.116-.694-.058-.347-.029-.173-.028-.1a2.69 2.69 0 00-1.169-1.44 9.765 9.765 0 00-2.262-1.126 45.762 45.762 0 00-11.065-1.97 181.26 181.26 0 00-23.147-.023c-1.927.087-3.853.285-5.84.347l-5.837.232-11.676.368c-7.784.234-15.572.327-23.359.404-15.574.124-31.146.168-46.721-.328l-5.842-.24-5.842-.4c-1.95-.117-3.894-.43-5.844-.636-.974-.095-1.96-.384-2.94-.57l-1.434-.469a9.597 9.597 0 01-1.41-.534 26.58 26.58 0 01-9.586-7.128 48.58 48.58 0 01-6.613-9.892 111.185 111.185 0 01-7.978-22.15c-2-7.564-3.576-15.204-5.242-22.79l-1.3-5.669c-.433-1.89-.91-3.764-1.514-5.56a39.762 39.762 0 00-2.07-5.313 33.547 33.547 0 00-2.997-4.832 26.973 26.973 0 00-8.519-7.456 9.994 9.994 0 00-1.277-.651l-1.306-.6c-.904-.313-1.79-.701-2.724-.93a23.263 23.263 0 00-5.679-.976z" class="color000 svgShape"/><path class="color000 svgShape" d="M381.157 363.519l-1.362 32.364-1.362-32.364h2.724zM358.637 418.112h6.357v60.151h-6.357zM417.743 362.485h6.357v60.151h-6.357zM186.221 418.112h6.357v60.151h-6.357z"/><path d="M472.48 385.347l3.094 17.946 2.626 30.21s-17.055 3.18-23.599 1.877c0 0-14.544-23.177-26.97-45.635a187.857 187.857 0 01-18.387-47.666l-4.273-18.118a96.075 96.075 0 00-2.942-17.467c2.951-2.692 5.778-5.49 8.566-8.326 2.797-2.826 5.519-5.73 8.25-8.613 1.197-1.293 2.385-2.597 3.583-3.9a34.836 34.836 0 0116.364.69 23.806 23.806 0 017.866 4.053 23.502 23.502 0 015.73 6.678 48.142 48.142 0 013.401 8.25c.958 2.855 1.782 5.758 2.558 8.69 1.533 5.844 2.865 11.756 4.101 17.686 2.587 11.833 4.733 23.78 6.889 35.719 1.092 5.97 2.127 11.948 3.143 17.926z" class="color000 svgShape"/><path d="M494.622 419.12l-19.048-15.827c-.613-6.046-1.408-12.063-2.165-18.09q-1.25-9.025-2.616-18.031c-.89-6.007-1.964-11.986-3.018-17.965-1.082-5.978-2.213-11.957-3.459-17.907-1.293-5.94-2.682-11.861-4.292-17.744-.805-2.942-1.667-5.864-2.663-8.757a43.885 43.885 0 00-3.708-8.48 25.074 25.074 0 00-6.257-6.879 24.424 24.424 0 00-8.345-3.995 31.61 31.61 0 00-9.131-.94 35.717 35.717 0 00-7.349 1.007c1.447-1.572 2.903-3.133 4.331-4.714 2.702-2.913 5.28-5.931 8.144-8.7l-1.255.814c-.422.288-.805.604-1.207.91-.796.604-1.553 1.256-2.319 1.898q-2.27 1.954-4.427 4.033c-2.903 2.731-5.662 5.605-8.393 8.499a260.06 260.06 0 00-7.952 8.91c-2.577 3.028-5.097 6.113-7.464 9.332-8.335-31.455-29.97-47.043-29.97-47.043s48.165-27.019 63.418-14.813c15.253 12.197 22.228 17.87 42.713 76.276 20.494 58.407 31.704 81.334 31.704 81.334zm-39.886 9.54a52.26 52.26 0 01-.937 12.431 17.193 17.193 0 01-1.025 3.007 26.378 26.378 0 00-.946 2.854 12.683 12.683 0 00-.276 5.807 9.103 9.103 0 002.866 4.83 13.293 13.293 0 001.134.908l.61.407c.23.15.464.303.677.465a13.918 13.918 0 002.447 1.645 17.256 17.256 0 005.792 1.207c2.035.142 4.094.172 6.153.148a206.09 206.09 0 0024.648-2.266l24.526-3.548-.75.758a3.029 3.029 0 00-.104-.463 3.398 3.398 0 00-.278-.615 5.797 5.797 0 00-.878-1.178 12.852 12.852 0 00-2.44-1.98 33.07 33.07 0 00-5.88-2.895c-2.08-.79-4.175-1.448-6.36-2.09a121.344 121.344 0 01-6.46-2.168 62.56 62.56 0 01-12.339-5.843 23.387 23.387 0 01-5.255-4.426 9.453 9.453 0 01-2.486-6.292.088.088 0 01.175-.001 9.286 9.286 0 002.814 5.844 24.354 24.354 0 005.298 3.983 70.452 70.452 0 0012.31 5.257c4.238 1.461 8.618 2.412 12.968 3.994a33.328 33.328 0 016.242 3.082 13.588 13.588 0 012.76 2.32 7.544 7.544 0 011.103 1.554 3.993 3.993 0 01.546 2.136.778.778 0 01-.678.748l-.072.01c-8.2 1.05-16.413 2.018-24.653 2.748-8.243.702-16.455 1.598-24.726 2.135-2.07.133-4.146.22-6.238.182a18.076 18.076 0 01-6.333-1.018 15.093 15.093 0 01-2.744-1.714l-1.29-.85a14.846 14.846 0 01-1.29-1.02 10.206 10.206 0 01-3.262-5.698 14.076 14.076 0 01.423-6.455 19.886 19.886 0 011.104-2.99 15.909 15.909 0 001.122-2.796 69.28 69.28 0 001.807-12.157.088.088 0 01.092-.084.091.091 0 01.083.086z" class="color000 svgShape"/><path fill="#fff" d="M461.07 439.835a8.93 8.93 0 00.897 3.987 5.45 5.45 0 001.212 1.556 12.818 12.818 0 001.691 1.27 4.784 4.784 0 01-2.107-.728 4.386 4.386 0 01-1.568-1.686 4.996 4.996 0 01-.125-4.399z" class="colorfff svgShape"/><path d="M466.707 447.35l-1.897-.252a5.19 5.19 0 01-2.304-.803 4.787 4.787 0 01-1.71-1.843 5.478 5.478 0 01-.136-4.81l.794-1.69.07 1.866a8.327 8.327 0 00.841 3.786 5.001 5.001 0 001.116 1.434 10.724 10.724 0 001.438 1.094zm-13.544 10.782s-4.916 1.89-1.87 10.831c0 0-.291 3.374 11.66 2.348l60.279-1.915s4.135-10.01-5.195-11.637l-15.086 1.9s3.467-9.13 2.32-12.035a13.954 13.954 0 00-16.14-5.529s1.1 14.43-9.875 19.737c0 0-16.41-.283-26.093-3.7zm39.28-41.478a52.261 52.261 0 017.506 9.956 17.192 17.192 0 011.215 2.934 26.382 26.382 0 001.174 2.769 12.683 12.683 0 003.628 4.543 9.103 9.103 0 005.342 1.735 13.29 13.29 0 001.45-.067l.727-.097c.272-.038.548-.079.815-.098a13.916 13.916 0 002.925-.38 17.256 17.256 0 005.146-2.919c1.623-1.237 3.188-2.574 4.72-3.951a206.088 206.088 0 0017.013-17.977l16.076-18.86-.063 1.065a3.029 3.029 0 00-.384-.28 3.399 3.399 0 00-.615-.277 5.797 5.797 0 00-1.437-.306 12.851 12.851 0 00-3.14.124 33.071 33.071 0 00-6.326 1.709c-2.085.78-4.093 1.67-6.158 2.63-2.066.94-4.164 1.813-6.282 2.637a62.561 62.561 0 01-13.125 3.76 23.388 23.388 0 01-6.869.146 9.453 9.453 0 01-6.021-3.083.088.088 0 01.13-.117 9.287 9.287 0 005.972 2.53 24.355 24.355 0 006.609-.506 70.452 70.452 0 0012.716-4.18c4.148-1.702 8.065-3.88 12.376-5.564a33.327 33.327 0 016.723-1.807 13.588 13.588 0 013.605-.08 7.544 7.544 0 011.854.439 3.993 3.993 0 011.82 1.242.778.778 0 01-.015 1.01l-.047.055c-5.465 6.203-10.994 12.354-16.7 18.343-5.727 5.97-11.303 12.065-17.16 17.93-1.465 1.467-2.967 2.903-4.564 4.256a18.077 18.077 0 01-5.428 3.417 15.093 15.093 0 01-3.193.525l-1.53.213a14.847 14.847 0 01-1.642.085 10.206 10.206 0 01-6.211-2.124 14.076 14.076 0 01-3.946-5.128 19.886 19.886 0 01-1.144-2.974 15.91 15.91 0 00-1.004-2.84 69.281 69.281 0 00-6.67-10.324.088.088 0 01.013-.123.091.091 0 01.12.01z" class="color000 svgShape"/><path fill="#fff" d="M504.58 420.865a8.93 8.93 0 003.306 2.402 5.45 5.45 0 001.938.368 12.819 12.819 0 002.108-.163 4.784 4.784 0 01-2.063.845 4.386 4.386 0 01-2.29-.23 4.996 4.996 0 01-3-3.222z" class="colorfff svgShape"/><path d="M509.175 424.837a5.177 5.177 0 01-1.752-.324 5.478 5.478 0 01-3.28-3.522l-.519-1.791 1.285 1.353a8.34 8.34 0 003.132 2.287 5.006 5.006 0 001.785.341 10.587 10.587 0 001.8-.128l2.146-.266-1.587 1.063a5.181 5.181 0 01-2.262.918 3.968 3.968 0 01-.748.069zm1.548 14.99s-2.444 4.667 5.748 9.369c0 0 2.009 2.726 10.306-5.936l44.005-41.24s-3.504-10.249-11.586-5.31l-10.074 11.389s-3.424-9.146-6.205-10.57a13.954 13.954 0 00-15.772 6.505s10.354 10.11 5.617 21.342c0 0-12.511 10.624-22.04 14.45zm-36.069-322.024V76.997a5.275 5.275 0 00-5.26-5.26h-72.682a5.275 5.275 0 00-5.26 5.26v131.338a5.27 5.27 0 005.26 5.27h72.682a5.27 5.27 0 005.26-5.27v-35.421h-8.92v27.278a4.363 4.363 0 01-4.359 4.359h-56.644a4.355 4.355 0 01-4.35-4.36V85.152a4.349 4.349 0 014.35-4.36h56.644a4.357 4.357 0 014.36 4.36v32.652z" class="color000 svgShape"/><path d="M417.36 200.781a1.092 1.092 0 01-.913-.49l-4.859-7.333a1.093 1.093 0 01.911-1.698 3.766 3.766 0 000-7.531 1.094 1.094 0 110-2.188 5.954 5.954 0 011.844 11.614l3.927 5.928a1.093 1.093 0 01-.91 1.698z" class="color000 svgShape"/><path d="M421.128 183.729h-14.313a1.094 1.094 0 110-2.188h14.313a1.094 1.094 0 110 2.188zm0 9.719h-14.313a1.094 1.094 0 110-2.188h14.313a1.094 1.094 0 110 2.188zm15.532 7.333a1.092 1.092 0 01-.912-.49l-4.86-7.333a1.093 1.093 0 01.911-1.698 3.766 3.766 0 100-7.531 1.094 1.094 0 010-2.188 5.954 5.954 0 011.843 11.615l3.928 5.927a1.094 1.094 0 01-.91 1.698z" class="color000 svgShape"/><path d="M440.429 183.729h-14.314a1.094 1.094 0 110-2.188h14.314a1.094 1.094 0 110 2.188zm0 9.719h-14.314a1.094 1.094 0 110-2.188h14.314a1.094 1.094 0 110 2.188zm15.095 7.333a1.092 1.092 0 01-.912-.49l-4.86-7.333a1.093 1.093 0 01.911-1.698 3.766 3.766 0 100-7.531 1.094 1.094 0 110-2.188 5.954 5.954 0 011.843 11.615l3.928 5.927a1.094 1.094 0 01-.91 1.698z" class="color000 svgShape"/><path d="M459.293 183.729h-14.314a1.094 1.094 0 110-2.188h14.314a1.094 1.094 0 110 2.188zm0 9.719h-14.314a1.094 1.094 0 110-2.188h14.314a1.094 1.094 0 110 2.188zm70.606-75.74a3.404 3.404 0 013.366 2.941c.069 1.604.02 3.164.052 4.747.039 3.157.05 6.313.12 9.47l.35 18.938.16 9.469.057 4.734.006 1.184a5.747 5.747 0 01-.1 1.363 4.09 4.09 0 01-1.602 2.424 4.14 4.14 0 01-1.335.64 4.899 4.899 0 01-1.393.15l-2.367.004-4.735-.021-9.469-.043-18.938-.26-9.47-.14-9.469-.062c-12.625-.099-25.25.037-37.876.193a3.85 3.85 0 01-3.838-3.31 12.127 12.127 0 01-.05-1.257l-.017-1.184-.032-2.367-.106-9.47-.141-18.938-.049-9.469-.024-4.734-.006-1.184a5.921 5.921 0 01.103-1.396 4.27 4.27 0 013.047-3.183 4.162 4.162 0 01.76-.135l.377-.018.295-.002 2.368-.005 4.734.01 9.47.018c12.625-.002 25.25.09 37.876.358 12.625.249 25.25.542 37.876.534zm0 .191c-12.625-.007-25.25.286-37.876.535-12.626.267-25.251.36-37.877.357l-9.469.019-4.734.01-2.368-.006-.295-.002-.215.009a2.16 2.16 0 00-.404.067 2.277 2.277 0 00-1.642 1.68 4.032 4.032 0 00-.066.958l-.006 1.184-.024 4.734-.049 9.47-.141 18.938-.106 9.469-.033 2.367-.016 1.184c-.002.39-.022.815.009 1.108a2.731 2.731 0 002.669 2.41c12.625.154 25.251.29 37.876.192l9.47-.062 9.469-.14 18.938-.26 9.47-.043 4.734-.021 2.367.003a3.144 3.144 0 00.953-.08 2.447 2.447 0 00.791-.369 2.417 2.417 0 00.967-1.427 4.156 4.156 0 00.07-.992l.007-1.184.057-4.734.16-9.47.35-18.937c.07-3.157.08-6.313.12-9.47.005-1.57.041-3.171-.008-4.719a3.198 3.198 0 00-3.148-2.778z" class="color000 svgShape"/><path class="color000 svgShape" d="M433.973 129.24h99.208v5.468h-99.208z"/><circle cx="520.321" cy="161.631" r="5.315" class="color000 svgShape"/><path d="M448.84 82.981h-31.573a2.187 2.187 0 110-4.374h31.573a2.187 2.187 0 110 4.374zm-14.868 57.533v18.94a9.474 9.474 0 010-18.94zM400.378 91.752h65.352v3.28h-65.352zM363.157 236.564a12.41 12.41 0 012.776 1.98 6.485 6.485 0 011.13 1.405 3.084 3.084 0 01.465 2.01 2.602 2.602 0 01-.463 1.077 3.103 3.103 0 01-.808.732 5.726 5.726 0 01-1.792.696 11.562 11.562 0 01-3.509.172 41.75 41.75 0 01-6.609-1.462c-2.153-.586-4.314-1.13-6.468-1.755a38.36 38.36 0 01-6.32-2.347 31.295 31.295 0 01-5.871-3.464 15.354 15.354 0 01-2.526-2.456 7.003 7.003 0 01-.976-1.618 3.075 3.075 0 01-.142-2.155 2.636 2.636 0 011.486-1.522 5.548 5.548 0 011.775-.44 12.563 12.563 0 013.406.2l-.008.182a17.603 17.603 0 00-3.227.53 5.347 5.347 0 00-1.377.588 1.398 1.398 0 00-.685.875c-.13.612.42 1.507 1.095 2.228a16.293 16.293 0 002.356 2.05 46.705 46.705 0 005.466 3.479 121.195 121.195 0 005.89 2.937 26.858 26.858 0 0012.796 2.64 19.736 19.736 0 003.119-.236c.977-.179 1.872-.592 2.009-1.194a2.012 2.012 0 00-.171-1.198 7.297 7.297 0 00-.77-1.318 25.724 25.724 0 00-2.156-2.471z" class="color000 svgShape"/><path d="M360.593 242.934a14.553 14.553 0 012.898 1.872 8.572 8.572 0 011.258 1.272 4.454 4.454 0 01.907 1.73 2.507 2.507 0 01-.49 2.221 3.963 3.963 0 01-1.765 1.115 9.654 9.654 0 01-3.597.4 38.019 38.019 0 01-6.748-1.351c-2.194-.567-4.39-1.107-6.583-1.724a38.761 38.761 0 01-6.432-2.34 32.247 32.247 0 01-5.985-3.466 16.404 16.404 0 01-2.594-2.445 7.89 7.89 0 01-1.03-1.593 3.352 3.352 0 01-.3-2.133 2.585 2.585 0 011.405-1.67 5.332 5.332 0 011.8-.494 12.282 12.282 0 013.463.175l-.009.182a16.793 16.793 0 00-3.27.554 5.036 5.036 0 00-1.374.62 1.332 1.332 0 00-.611.911 3.613 3.613 0 001.249 2.286 17.68 17.68 0 002.431 2.056 48.18 48.18 0 005.586 3.488 117.23 117.23 0 006.006 2.933 30.17 30.17 0 006.378 2.085 28.204 28.204 0 006.63.414 13.583 13.583 0 003.084-.416 2.476 2.476 0 001.1-.598 1.024 1.024 0 00.275-.936 6.093 6.093 0 00-1.465-2.59c-.707-.832-1.509-1.616-2.321-2.41z" class="color000 svgShape"/></svg></svg>